HIERARCHY
ROOT Hips
{
	OFFSET 0.00000 0.00000 0.00000
	CHANNELS 6 Xposition Yposition Zposition Zrotation Yrotation Xrotation 
	JOINT LHipJoint
	{
		OFFSET 0 0 0
		CHANNELS 3 Zrotation Yrotation Xrotation
		JOINT LeftHip
		{
			OFFSET 1.48831 -1.59570 0.95625
			CHANNELS 3 Zrotation Yrotation Xrotation
			JOINT LeftKnee
			{
				OFFSET 2.20856 -6.06797 0.00000
				CHANNELS 3 Zrotation Yrotation Xrotation
				JOINT LeftAnkle
				{
					OFFSET 2.62924 -7.22379 0.00000
					CHANNELS 3 Zrotation Yrotation Xrotation
					JOINT LeftToe
					{
						OFFSET 0.16802 -0.46163 2.41673
						CHANNELS 3 Zrotation Yrotation Xrotation
						End Site
						{
							OFFSET 0.00000 -0.00000 1.23760
						}
					}
				}
			}
		}
	}
	JOINT RHipJoint
	{
		OFFSET 0 0 0
		CHANNELS 3 Zrotation Yrotation Xrotation
		JOINT RightHip
		{
			OFFSET -1.56796 -1.59570 0.95625
			CHANNELS 3 Zrotation Yrotation Xrotation
			JOINT RightKnee
			{
				OFFSET -2.29239 -6.29829 0.00000
				CHANNELS 3 Zrotation Yrotation Xrotation
				JOINT RightAnkle
				{
					OFFSET -2.66963 -7.33475 0.00000
					CHANNELS 3 Zrotation Yrotation Xrotation
					JOINT RightToe
					{
						OFFSET -0.18185 -0.49964 2.34359
						CHANNELS 3 Zrotation Yrotation Xrotation
						End Site
						{
							OFFSET -0.00000 -0.00000 1.20477
						}
					}
				}
			}
		}
	}
	JOINT lowerback
	{
		OFFSET 0 0 0
		CHANNELS 3 Zrotation Yrotation Xrotation
		JOINT Chest
		{
			OFFSET 0.03505 2.15832 -0.34324
			CHANNELS 3 Zrotation Yrotation Xrotation
			JOINT Chest2
			{
				OFFSET -0.01089 2.17963 0.04689
				CHANNELS 3 Zrotation Yrotation Xrotation
				JOINT lowerneck
				{
					OFFSET 0 0 0
					CHANNELS 3 Zrotation Yrotation Xrotation
					JOINT Neck
					{
						OFFSET 0.04686 1.69404 0.22159
						CHANNELS 3 Zrotation Yrotation Xrotation
						JOINT Head
						{
							OFFSET 0.00265 1.69305 -0.01513
							CHANNELS 3 Zrotation Yrotation Xrotation
							End Site
							{
								OFFSET -0.00415 1.80215 -0.03034
							}
						}
					}
				}
				JOINT LeftCollar
				{
					OFFSET 0 0 0
					CHANNELS 3 Zrotation Yrotation Xrotation
					JOINT LeftShoulder
					{
						OFFSET 3.67184 1.11724 -0.19002
CHANNELS 3 Zrotation Xrotation Yrotation
						JOINT LeftElbow
						{
OFFSET 0 -5.177140 -0.000000
CHANNELS 3 Zrotation Xrotation Yrotation
							JOINT LeftWrist
							{
OFFSET 0 -3.436790 -0.000000
CHANNELS 3 Zrotation Xrotation Yrotation
								JOINT lhand
								{
									OFFSET 0 0 0
CHANNELS 3 Zrotation Xrotation Yrotation
									JOINT LFingers
									{
OFFSET 0 -0.573120 -0.000000
CHANNELS 3 Zrotation Xrotation Yrotation
										End Site
										{
OFFSET 0 -0.462060 -0.000000
										}
									}
								}
								JOINT LThumb
								{
OFFSET 0 0.000000 0.000000
CHANNELS 3 Zrotation Xrotation Yrotation
									End Site
									{
OFFSET 0 -0.469120 0.469120
									}
								}
							}
						}
					}
				}
				JOINT RightCollar
				{
					OFFSET 0 0 0
					CHANNELS 3 Zrotation Yrotation Xrotation
					JOINT RightShoulder
					{
						OFFSET -3.59596 0.95831 -0.26050
CHANNELS 3 Zrotation Xrotation Yrotation
						JOINT RightElbow
						{
OFFSET 0 -5.239080 -0.000000
CHANNELS 3 Zrotation Xrotation Yrotation
							JOINT RightWrist
							{
OFFSET 0 -3.464850 -0.000000
CHANNELS 3 Zrotation Xrotation Yrotation
								JOINT rhand
								{
									OFFSET 0 0 0
CHANNELS 3 Zrotation Xrotation Yrotation
									JOINT RFingers
									{
OFFSET 0 -0.608750 -0.000000
CHANNELS 3 Zrotation Xrotation Yrotation
										End Site
										{
OFFSET 0 -0.490790 -0.000000
										}
									}
								}
								JOINT RThumb
								{
OFFSET 0 0.000000 0.000000
CHANNELS 3 Zrotation Xrotation Yrotation
									End Site
									{
OFFSET 0 -0.498290 0.498290
									}
								}
							}
						}
					}
				}
			}
		}
	}
}
MOTION
Frames: 11
Frame Time: 0.008333333333333333
50.492500 15.831800 19.255400 -177.559000 -43.695800 173.125000 0.000000 0.000000 0.000000 -18.010700 12.553100 -6.241200 2.084000 9.038800 25.916900 1.319300 2.954000 -22.939800 0.003300 -0.371000 -1.019400 0.000000 0.000000 0.000000 17.281000 2.652500 -18.015000 -6.763900 -15.129800 47.975800 -1.396500 -1.481100 -22.909700 -0.389900 4.009800 -11.104200 -0.841800 0.722000 10.058700 -1.661000 0.489400 5.490500 -1.290800 0.087800 0.069200 2.532400 0.176700 -8.109300 -1.250300 -0.164300 14.828900 -0.833000 -0.128700 5.813800 -0.000000 0.000000 0.000000 7.247200 -1.631600 -14.906400 13.727300 -22.343500 2.723600 17.816000 -17.058600 -11.078100 0.000000 0.000000 0.000000 -7.125000 0.000000 0.000000 -8.279300 41.458200 -0.728900 -0.000000 0.000000 0.000000 1.927900 2.166900 15.965100 -24.737400 -35.934400 -8.135300 -14.388600 0.619300 6.046100 0.000000 0.000000 0.000000 7.125000 0.000000 -0.000000 10.332200 36.054500 2.302600
50.504841 15.832439 19.210940 -177.138397 -43.682718 172.545716 0.000000 0.000000 0.000000 -17.481409 12.394933 -5.732977 2.087890 9.046868 25.942013 1.323390 3.185172 -23.085827 0.006173 -0.505625 -1.389431 0.000000 0.000000 0.000000 17.613815 2.689458 -17.269836 -6.679135 -15.055645 47.650096 -1.398161 -2.945353 -23.567487 -0.131956 2.339630 -6.445350 -0.508981 0.707472 9.982651 -1.674940 0.492174 5.625487 -1.491886 0.092820 0.254906 2.662573 0.334541 -8.464613 -1.584216 0.045659 15.694376 -0.950497 -0.054374 6.151799 0.000000 0.000000 0.000000 7.563493 -1.804341 -14.634492 13.668897 -22.259434 2.701437 17.835962 -16.732702 -11.318110 0.000000 0.000000 0.000000 -7.125000 0.000000 0.000000 -8.307414 41.708135 -0.679788 0.000000 0.000000 0.000000 2.132163 2.872308 16.775739 -26.375496 -37.576832 -9.115774 -13.479623 0.619646 6.224179 0.000000 0.000000 0.000000 7.125000 0.000000 0.000000 11.112494 36.184641 2.445824
50.516029 15.831551 19.149559 -176.767795 -43.680172 172.280513 0.000000 0.000000 0.000000 -17.004607 12.023800 -5.519653 2.112559 9.096743 26.098260 1.344036 3.381989 -23.349207 0.007300 -0.552132 -1.517118 0.000000 0.000000 0.000000 18.028742 3.007366 -16.492806 -6.437605 -14.839338 46.713678 -1.225635 -3.912439 -22.655462 -0.053250 1.488289 -4.093493 -0.188124 0.679138 9.625152 -1.617287 0.500874 5.572067 -1.610617 0.110141 0.397643 2.550384 0.423008 -8.714224 -1.677215 0.158363 16.565232 -0.959326 -0.026921 6.474019 0.000000 0.000000 0.000000 7.703338 -1.812549 -14.457857 13.732936 -22.351692 2.725769 17.816834 -16.865930 -11.222174 0.000000 0.000000 0.000000 -7.125000 0.000000 0.000000 -8.305890 41.607211 -0.700498 0.000000 0.000000 0.000000 2.182113 3.527363 17.447841 -27.853354 -38.980495 -10.031448 -12.505950 0.489249 6.395608 0.000000 0.000000 0.000000 7.125000 0.000000 0.000000 11.946302 36.301976 2.600879
50.532874 15.827925 19.071788 -176.442773 -43.728791 172.324947 0.000000 0.000000 0.000000 -16.511388 11.714426 -5.760240 2.169562 9.210714 26.456742 1.370423 3.279469 -23.509075 0.008156 -0.582586 -1.600820 0.000000 0.000000 0.000000 18.562489 3.454884 -15.746692 -6.121034 -14.544541 45.465412 -1.194849 -3.670559 -22.269314 -0.036692 1.237099 -3.401428 0.208493 0.690382 8.951136 -1.590503 0.581415 5.412099 -1.807050 0.172408 0.607176 2.594057 0.434453 -9.017574 -1.824484 0.154717 17.385890 -1.021022 -0.050749 6.789731 0.000000 0.000000 0.000000 7.865386 -1.791156 -14.574127 13.904169 -22.597546 2.791200 17.790631 -17.298217 -11.330955 0.000000 0.000000 0.000000 -7.125000 0.000000 0.000000 -8.349790 41.717086 -0.681423 0.000000 0.000000 0.000000 2.321905 3.987666 17.920967 -29.147688 -40.151347 -10.855945 -11.604060 0.355366 6.656132 0.000000 0.000000 0.000000 7.125000 0.000000 0.000000 12.738096 36.509888 2.713927
50.560051 15.822669 18.987163 -176.114052 -43.751126 172.395337 0.000000 0.000000 0.000000 -15.977529 11.366361 -6.113646 2.251183 9.370784 26.962216 1.400902 3.245866 -23.733242 0.012439 -0.719074 -1.976104 0.000000 0.000000 0.000000 19.248205 3.697489 -15.023531 -5.849516 -14.280858 44.374711 -1.288434 -3.477797 -22.947198 -0.040299 1.295040 -3.560976 0.567297 0.664255 8.313019 -1.449830 0.607045 5.210534 -1.859791 0.205700 0.752057 2.495549 0.476959 -9.162767 -1.987046 0.235466 17.866842 -1.054574 -0.040909 6.971816 0.000000 0.000000 0.000000 7.730180 -1.743076 -14.361864 14.106113 -22.886182 2.869241 17.919682 -17.535423 -11.529522 0.000000 0.000000 0.000000 -7.125000 0.000000 0.000000 -8.274425 41.934823 -0.630499 0.000000 0.000000 0.000000 2.190526 4.127039 18.691720 -30.017398 -40.908157 -11.421041 -11.325470 0.459674 6.686254 0.000000 0.000000 0.000000 7.125000 0.000000 0.000000 12.973697 36.523469 2.761917
50.591875 15.813333 18.896107 -175.788392 -43.798004 172.302626 0.000000 0.000000 0.000000 -15.397782 10.967861 -6.255947 2.334317 9.530176 27.468388 1.432726 3.256978 -23.987464 0.016192 -0.820852 -2.256038 0.000000 0.000000 0.000000 20.006330 3.670951 -14.208212 -5.578616 -14.007097 43.266005 -1.434680 -3.169671 -23.960349 -0.011510 0.688484 -1.892021 1.170831 0.692025 7.856671 -1.417077 0.705460 5.054827 -2.168155 0.278457 0.854459 2.539655 0.447503 -9.237640 -1.981850 0.176474 18.104297 -1.067572 -0.069865 7.060579 0.000000 0.000000 0.000000 7.732287 -1.813506 -14.300490 14.260566 -23.106024 2.929548 18.605636 -17.628051 -11.485697 0.000000 0.000000 0.000000 -7.125000 0.000000 0.000000 -7.659710 41.956090 -0.578887 0.000000 0.000000 0.000000 2.214311 4.036678 19.360858 -30.630281 -41.427494 -11.824488 -11.235062 0.650929 6.663885 0.000000 0.000000 0.000000 7.125000 0.000000 0.000000 13.043935 36.495957 2.786504
50.629178 15.800106 18.801828 -175.543127 -43.814394 172.199269 0.000000 0.000000 0.000000 -14.822218 10.711451 -6.345305 2.412859 9.677643 27.939068 1.461692 3.212832 -24.190806 0.021831 -0.953102 -2.619830 0.000000 0.000000 0.000000 20.784952 3.467281 -13.597207 -5.365374 -13.783773 42.378199 -1.572866 -3.266111 -25.057028 -0.001303 0.225423 -0.619397 1.695860 0.686388 7.510304 -1.281751 0.747590 4.912547 -2.323098 0.317885 0.906843 2.451803 0.440974 -9.284169 -2.052524 0.188166 18.265220 -1.076428 -0.079323 7.120967 0.000000 0.000000 0.000000 7.452348 -1.842817 -14.211224 14.432947 -23.350228 2.997596 18.651374 -18.011851 -10.988056 0.000000 0.000000 0.000000 -7.125000 0.000000 0.000000 -7.528173 41.443017 -0.664675 0.000000 0.000000 0.000000 1.989010 3.734379 20.130485 -31.072461 -41.795069 -12.118074 -10.970423 0.539521 6.685008 0.000000 0.000000 0.000000 7.125000 0.000000 0.000000 13.266233 36.501283 2.834274
50.678961 15.789226 18.707679 -175.240459 -43.812101 172.161436 0.000000 0.000000 0.000000 -14.191417 10.361549 -6.573863 2.496218 9.830964 28.431132 1.491245 3.158675 -24.391548 0.022129 -0.960385 -2.639937 0.000000 0.000000 0.000000 21.619551 3.323551 -13.336536 -5.230490 -13.638742 41.809344 -1.712584 -3.392575 -26.133935 -0.002124 -0.294878 0.810169 2.286728 0.692023 7.177726 -1.122662 0.805422 4.748680 -2.491400 0.365681 0.932287 2.433450 0.462610 -9.358292 -2.079850 0.224560 18.334771 -1.079706 -0.065970 7.157562 0.000000 0.000000 0.000000 7.126843 -1.912146 -14.348516 14.633199 -23.632706 3.077380 18.513297 -18.474060 -10.774996 0.000000 0.000000 0.000000 -7.125000 0.000000 0.000000 -7.611332 41.208719 -0.716345 0.000000 0.000000 0.000000 1.784552 3.216987 20.845195 -31.338605 -42.013516 -12.295850 -10.927210 0.196289 6.755619 0.000000 0.000000 0.000000 7.125000 0.000000 0.000000 13.315506 36.568708 2.822843
50.737029 15.777263 18.613966 -174.970302 -43.801055 171.845878 0.000000 0.000000 0.000000 -13.525466 10.101259 -6.472989 2.571187 9.966161 28.867309 1.509445 3.203852 -24.551621 0.026547 -1.051756 -2.891323 0.000000 0.000000 0.000000 22.467442 3.392175 -12.740037 -5.115479 -13.512651 41.319010 -1.829536 -3.667431 -27.082868 -0.011710 -0.697513 1.916957 2.936746 0.676785 7.213469 -0.994346 0.829547 4.680133 -2.727022 0.390950 0.854111 2.415385 0.468818 -9.264761 -2.000641 0.227485 18.205422 -1.049423 -0.056725 7.099098 0.000000 0.000000 0.000000 6.785243 -1.883995 -14.540162 14.941689 -24.064790 3.202181 18.347452 -18.916735 -10.685600 0.000000 0.000000 0.000000 -7.125000 0.000000 0.000000 -7.740781 41.100583 -0.749489 0.000000 0.000000 0.000000 1.633216 2.531127 21.557995 -31.378537 -42.046067 -12.322592 -11.217844 0.025051 6.644163 0.000000 0.000000 0.000000 7.125000 0.000000 0.000000 13.054500 36.475346 2.795565
50.802869 15.765861 18.519754 -174.998035 -43.955747 171.773903 0.000000 0.000000 0.000000 -13.074457 9.974218 -6.460690 2.631001 10.072401 29.211326 1.504451 3.159536 -24.492420 0.039120 -1.275848 -3.508156 0.000000 0.000000 0.000000 23.040276 3.614557 -12.055206 -4.989027 -13.371453 40.775327 -1.979028 -3.655290 -28.086564 -0.038868 -1.272264 3.498216 3.352587 0.629692 7.241874 -0.883121 0.797279 4.622871 -2.844794 0.382241 0.783542 2.410748 0.464577 -9.272158 -1.998026 0.223161 18.196819 -1.048020 -0.058294 7.097493 0.000000 0.000000 0.000000 6.381130 -1.806093 -14.960957 15.312676 -24.579843 3.354925 18.292053 -19.247519 -10.672411 0.000000 0.000000 0.000000 -7.125000 0.000000 0.000000 -7.786977 41.081892 -0.757599 0.000000 0.000000 0.000000 1.466121 1.919364 22.203846 -31.505491 -42.149374 -12.407696 -11.417269 0.029148 6.603287 0.000000 0.000000 0.000000 7.125000 0.000000 0.000000 12.882357 36.446393 2.766503
50.871205 15.753519 18.425045 -175.239154 -44.387099 171.784781 0.000000 0.000000 0.000000 -12.775251 9.878699 -6.415806 2.677349 10.153486 29.475153 1.487019 2.895561 -24.235367 0.050528 -1.450143 -3.988381 0.000000 0.000000 0.000000 23.355568 3.369815 -11.364338 -4.832946 -13.193143 40.096008 -2.088927 -3.816346 -28.879458 -0.051969 -1.470426 4.044210 3.632127 0.554295 7.252821 -0.798592 0.711986 4.654721 -2.909409 0.344844 0.808537 2.425413 0.398736 -9.236648 -1.982188 0.134583 18.071524 -1.051822 -0.095556 7.048501 0.000000 0.000000 0.000000 6.034689 -1.857498 -15.892925 15.705258 -25.119338 3.519951 18.367394 -19.605855 -10.814715 0.000000 0.000000 0.000000 -7.125000 0.000000 0.000000 -7.746537 41.236724 -0.723903 0.000000 0.000000 0.000000 1.346658 1.474907 22.712449 -31.916331 -42.480323 -12.684302 -11.482604 -0.169297 6.590068 0.000000 0.000000 0.000000 7.125000 0.000000 0.000000 12.825936 36.437106 2.756832
